<svg width="32" height="32" viewBox="0 0 32 32" fill="none" xmlns="http://www.w3.org/2000/svg">
<path d="M13.3346 23.9993C15.7013 23.9989 17.9997 23.2066 19.864 21.7487L25.7253 27.61L27.6106 25.7247L21.7493 19.8633C23.208 17.9989 24.0007 15.6999 24.0013 13.3327C24.0013 7.45135 19.216 2.66602 13.3346 2.66602C7.4533 2.66602 2.66797 7.45135 2.66797 13.3327C2.66797 19.214 7.4533 23.9993 13.3346 23.9993ZM13.3346 5.33268C17.7466 5.33268 21.3346 8.92068 21.3346 13.3327C21.3346 17.7447 17.7466 21.3327 13.3346 21.3327C8.92264 21.3327 5.33464 17.7447 5.33464 13.3327C5.33464 8.92068 8.92264 5.33268 13.3346 5.33268Z" fill="black"/>
</svg>
